# xmcd
#
# Track frame offsets: 
#        150
#        13860
#        26506
#        43182
#        54790
#        64083
#        75700
#        86420
#        96501
#        116329
#        132115
#        146168
#        154909
#        165704
#        175945
#        191974
#        199637
#        209679
#        223391
#        235514
#        248794
#        264846
#        276558
#        289822
#
# Disc length: 4072 seconds
#
# Revision: 0
# Processed by: cddbd v1.5.2PL0 Copyright (c) Steve Scherf et al.
# Submitted via: ExactAudioCopy v0.99pb4
#
DISCID=680fe618
DTITLE=Jean-Claude Darnal - Chante pour les enfants
DYEAR=2008
DGENRE=Chanson
TTITLE0=Ecoute, mon Enfant (Préface)
TTITLE1=Zim boum boum
TTITLE2=Magic Man
TTITLE3=T étais libre
TTITLE4=Avec son Cheval
TTITLE5=Moi, je le dis à mon Poisson
TTITLE6=Jean de la Fontaine
TTITLE7=Dans mon Trésor
TTITLE8=Il est derrière la Porte
TTITLE9=Le Cerf Volant
TTITLE10=Robin des Bois
TTITLE11=Le Duc d'Aquitaine
TTITLE12=Buffalo Bill
TTITLE13=Ma Rochelle
TTITLE14=Flic Floc
TTITLE15=La Rose de Noël
TTITLE16=Le Bonhomme de Neige
TTITLE17=Ballade pour un Noël
TTITLE18=Papa ô Papa
TTITLE19=Dites-moi M'sieur (l'Oiseau)
TTITLE20=C'est Woody qui l'a dit
TTITLE21=Le Tour du Monde
TTITLE22=Le Soudard
TTITLE23=Parfois le vent léger faisait bouger son aile
EXTD=
EXTT0=d
EXTT1=
EXTT2=
EXTT3=
EXTT4=
EXTT5=
EXTT6=
EXTT7=
EXTT8=
EXTT9=
EXTT10=
EXTT11=
EXTT12=
EXTT13=
EXTT14=
EXTT15=
EXTT16=
EXTT17=
EXTT18=
EXTT19=
EXTT20=
EXTT21=
EXTT22=
EXTT23=
PLAYORDER=
